<svg id="Group_2727" data-name="Group 2727" xmlns="http://www.w3.org/2000/svg" xmlns:xlink="http://www.w3.org/1999/xlink" width="22" height="22" viewBox="0 0 22 22">
  <defs>
    <clipPath id="clip-path">
      <rect id="Rectangle_753" data-name="Rectangle 753" width="22" height="22" fill="#fff"/>
    </clipPath>
  </defs>
  <g id="Group_2726" data-name="Group 2726" clip-path="url(#clip-path)">
    <path id="Path_2980" data-name="Path 2980" d="M22,11h0A11,11,0,1,0,11,22,10.968,10.968,0,0,0,22,11Zm-.7,0v.6a5.918,5.918,0,0,1-1.8,3.7,5.981,5.981,0,0,1-8,.5,5.932,5.932,0,0,0,2.3.5,5.4,5.4,0,1,0,0-10.8,5.932,5.932,0,0,0-2.3.5,6.4,6.4,0,0,1,3.7-1.3,5.816,5.816,0,0,1,4.3,1.8,6.477,6.477,0,0,1,1.8,3.7V11ZM12.4,7.7a3.69,3.69,0,0,1,2.4,1,3.312,3.312,0,0,1,1,2.4,3.492,3.492,0,0,1-1,2.4,3.312,3.312,0,0,1-2.4,1,3.168,3.168,0,0,1-2.3-.9,2.92,2.92,0,0,0,.9.2,2.647,2.647,0,0,0,2.6-2.6A2.83,2.83,0,0,0,11,8.4a2.92,2.92,0,0,0-.9.2A3.523,3.523,0,0,1,12.4,7.7Zm-1.6,6.9a4.146,4.146,0,0,0,1.6.3,4,4,0,1,0,0-8,4.146,4.146,0,0,0-1.6.3,4.617,4.617,0,0,1,3-1.1,4.374,4.374,0,0,1,3.3,1.4,4.706,4.706,0,0,1,1.4,3.3,4.534,4.534,0,0,1-1.4,3.3,4.706,4.706,0,0,1-3.3,1.4A3.728,3.728,0,0,1,10.8,14.6ZM11,9.1A1.9,1.9,0,0,1,12.9,11,1.967,1.967,0,0,1,11,12.9a1.9,1.9,0,0,1,0-3.8Zm4.2-4.9a6.8,6.8,0,1,0,0,13.6,6.5,6.5,0,0,0,3.1-.8,5.071,5.071,0,0,1-1.6.9,7.308,7.308,0,0,1-5.8,0,6.332,6.332,0,0,1-2.4-1.6,7.759,7.759,0,0,1-1.6-2.4,7.308,7.308,0,0,1,0-5.8A7.759,7.759,0,0,1,8.5,5.7a6.332,6.332,0,0,1,2.4-1.6,7.308,7.308,0,0,1,5.8,0,5.071,5.071,0,0,1,1.6.9A6.5,6.5,0,0,0,15.2,4.2ZM13.8,2.8a8.2,8.2,0,0,0,0,16.4,7.9,7.9,0,0,0,3.8-.9,9.5,9.5,0,0,1-1.7,1,8.424,8.424,0,0,1-3.5.7,8.424,8.424,0,0,1-3.5-.7,7.735,7.735,0,0,1-2.8-1.9,8.692,8.692,0,0,1-1.9-2.8,8.424,8.424,0,0,1-.7-3.5,8.424,8.424,0,0,1,.7-3.5A7.735,7.735,0,0,1,6.1,4.8,8.692,8.692,0,0,1,8.9,2.9a8.424,8.424,0,0,1,3.5-.7,8.424,8.424,0,0,1,3.5.7,9.5,9.5,0,0,1,1.7,1A7.042,7.042,0,0,0,13.8,2.8ZM11,21.3a10.974,10.974,0,0,1-4-.8,11.9,11.9,0,0,1-3.3-2.2A10.045,10.045,0,0,1,1.5,15a10.974,10.974,0,0,1-.8-4,10.974,10.974,0,0,1,.8-4A8.338,8.338,0,0,1,3.7,3.7,10.6,10.6,0,0,1,7,1.5a10.974,10.974,0,0,1,4-.8,10.974,10.974,0,0,1,4,.8,7.24,7.24,0,0,1,1.9,1.1,9.769,9.769,0,0,0-4.6-1.1,9.6,9.6,0,0,0,0,19.2,10.388,10.388,0,0,0,4.6-1.1A11.782,11.782,0,0,1,15,20.7,13.364,13.364,0,0,1,11,21.3Z" fill="#fff"/>
  </g>
</svg>
